<?xml version="1.0" encoding="utf-8"?>
<!-- Generator: Adobe Illustrator 23.0.2, SVG Export Plug-In . SVG Version: 6.00 Build 0)  -->
<svg version="1.1" id="Layer_1" xmlns="http://www.w3.org/2000/svg" xmlns:xlink="http://www.w3.org/1999/xlink" x="0px" y="0px"
	 viewBox="0 0 750 750" style="enable-background:new 0 0 750 750;" xml:space="preserve">
<style type="text/css">
	.st0{fill:#EA9999;}
</style>
<g>
	<path class="st0" d="M100.6,426.9c2.2-115,45-205.3,109.6-286.4c48.5-60.9,107.2-108.4,184-129.4c76-20.9,148-13.7,213.5,33.2
		c16.6,11.8,30.2,26.6,38.6,45.5c9.1,20.6-0.9,35.6-23.4,33.8c-27.7-2.2-55-8.3-81.8-15.2c-100-25.5-177.4,12.3-241.2,86.8
		c-51.8,60.5-87.5,129.5-91.8,209.9c-5.5,103,43.7,199.3,152.1,228c34.1,9,68.3,5.9,100.6-11.4c27.9-14.9,52.9-33.9,79.2-51.1
		c13.8-9,28.2-16.9,44.6-20.1c22.4-4.3,37.2,7.7,38,30.8c1,30.1-11.9,54.8-31,76.8C495.8,768,344.1,780.7,224.7,688.9
		C158.4,638.1,121,570.3,107.3,488.7C103.3,465.2,99.5,441.9,100.6,426.9z"/>
</g>
</svg>
