<?xml version="1.0" encoding="utf-8"?>
<!-- Generator: Adobe Illustrator 22.0.0, SVG Export Plug-In . SVG Version: 6.00 Build 0)  -->
<svg version="1.1" id="Layer_1" xmlns="http://www.w3.org/2000/svg" xmlns:xlink="http://www.w3.org/1999/xlink" x="0px" y="0px"
	 viewBox="0 0 2000 1221.2" style="enable-background:new 0 0 2000 1221.2;" xml:space="preserve">
<style type="text/css">
	.st0{fill:#FFFFFF;}
</style>
<g>
	<path class="st0" d="M6.9,919.2c2-106.9,41.8-190.9,101.9-266.3c45.1-56.6,99.7-100.8,171.1-120.3c70.7-19.4,137.6-12.7,198.5,30.9
		c15.4,11,28.1,24.7,35.9,42.3c8.5,19.2-0.8,33.1-21.8,31.4c-25.8-2-51.1-7.7-76.1-14.1c-93-23.7-165,11.4-224.3,80.7
		c-48.2,56.3-81.4,120.4-85.4,195.2c-5.1,95.8,40.6,185.3,141.4,212c31.7,8.4,63.5,5.5,93.5-10.6c25.9-13.9,49.2-31.5,73.6-47.5
		c12.8-8.4,26.2-15.7,41.5-18.7c20.8-4,34.6,7.2,35.3,28.6c0.9,28-11.1,51-28.8,71.4c-88.8,102.2-229.9,114-340.9,28.7
		c-61.6-47.3-96.4-110.3-109.1-186.2C9.4,954.9,5.9,933.2,6.9,919.2z"/>
	<path class="st0" d="M468.5,916.2c0.2-68.8,20.6-129.8,68.8-180.4c53.2-55.9,138.8-70.3,201.2-33.4c15.8,9.4,29.7,21.1,39.7,36.8
		c3.5,5.5,5.7,7.2,12.7,3.3c23.3-12.9,48.4-3.3,58.8,21.7c9.3,22.2,14.6,45.4,16.9,69.4c1.8,18.5,11.4,34.4,20.2,50.1
		c19.4,34.6,40.2,68.4,70.8,94.7c3.6,3.1,7.1,6.5,9.9,10.4c8.4,11.6,18.6,22.9,10.7,38.9c-6,12.3-23.3,19.3-41.2,17.4
		c-29.9-3.3-53.1-18.2-71.3-41.4c-10-12.8-19.2-26.2-28.2-39.8c-4.4-6.6-5.7-9.7-13.4-1.6c-50,52.5-109.5,89.6-181,104.9
		c-102.7,22-170.6-38.4-174.8-139.5C468.3,923.9,468.5,920,468.5,916.2z M549.6,908.4c0,9.1-0.3,13.9,0.1,18.7
		c3.7,46.3,26.6,68,66.2,60.8c58.5-10.5,107.2-39.6,147.9-82.3c14.9-15.7,22-35.2,19-56.7c-6.3-45.8-13.6-55.7-54.4-78.9
		c-50.7-28.9-107.7-16.6-142.8,30C560.2,833.5,550.2,871.6,549.6,908.4z"/>
	<path class="st0" d="M1046.6,994.3c-5.4-100.6-1.5-201.5-7.7-302.1c-2.3-37.8-9.5-75.1-15.3-112.4c-2.7-17.6-2.9-35.3-1.8-53.1
		c0.4-7.1,2.2-13.3,9.3-16.4c7.2-3.2,13.2,0.1,18.5,4.3c17.5,13.7,28.5,32.1,36.5,52.4c19.9,50.9,28.6,104.2,33.6,158.2
		c8.4,91.3,9.1,183,15.1,274.4c1.4,21.7,7.6,43.1,11.6,64.7c1.9,17.1,4.3,34.1,5.7,51.2c2.3,26.9-9.5,45.4-30.7,49.4
		c-23.1,4.3-48.5-10.4-55.7-33c-8.6-27-11.7-55.1-14.8-83.1C1049,1030.6,1048,1012.4,1046.6,994.3z"/>
	<path class="st0" d="M1592.9,12c41-6.9,67.6,12.6,83.4,48.1c27.5,62,61.6,120,99.5,175.9c2.7,3.9,5,8.2,6.9,12.6
		c7.9,17.8,6.8,32.7-2.8,41.4c-10,9-32.7,9.4-47,1.6c-26.9-14.6-45.3-37-61.2-62.6c-23.9-38.4-45-78.2-64-119.2
		c-1.2-9.7-5-7.8-10.8-3c-27.6,22.9-53.8,47.6-83.1,68.6c-23.7,17-47.9,33.4-74,46.5c-13,6.5-26.6,10.5-41.4,9
		c-14-1.4-24.4-8.2-31.5-19.9c-7.2-11.8-3.9-25.3,7.3-32.6c52.9-34.7,102.7-73.4,149.4-116.2C1544.7,42.8,1566,23.5,1592.9,12z"/>
	<path class="st0" d="M451,152.1c0,41.5,0.8,81.2-0.3,120.9c-0.7,24.8-1.3,50-14.4,72.5c-4.5,7.6-10,14-17.2,19
		c-22.6,15.7-49.9,4.2-54.3-23.1c-2.5-15.9,0.6-31.5,2.7-47.2c5.3-41.1,1.7-82.5,3.3-123.8c0.6-15.3,0.7-30.9,3.6-45.9
		c8.5-43.9,47.9-64.5,95.5-51.2c23.5,6.6,44.1,18.6,61.8,35.2c36.9,34.6,69.6,72.7,97.3,115.1c5.3,8.1,8.8,17,11.3,26.2
		c3.8,14.5-0.2,26.8-12,35.8c-11.9,9.1-25.2,9.2-37.7,1.7c-22.4-13.3-36.5-35.1-53.2-54.1c-19.3-22-38.3-44.3-59.8-64.3
		C470.2,162.2,462.3,156.4,451,152.1z"/>
	<path class="st0" d="M1269.8,1084.4c-15.2-15-14.4-35.1-16.7-54c-11.6-95.6-23-191.2-34.3-286.9c-5.6-47.1-10.7-94.3-20.3-140.8
		c-0.4-1.9-0.5-3.8-0.6-5.7c-1.2-18.7,3.9-29.3,15.9-33.5c12.4-4.3,29.9,2.8,38.5,16.1c14.5,22.6,21.2,48.2,25.7,74.1
		c11.9,67.9,23.5,135.9,32.8,204.2c6,44.2,15.1,87.9,19.7,132.3c0.3,3.3,2.3,5,4,7.2c27.1,33.3,16.8,81.1-21.6,100
		C1296,1101.5,1281.9,1096.1,1269.8,1084.4z"/>
	<path class="st0" d="M1648.2,824.2c-11.5,0-23.1,0.4-34.6-0.1c-10.4-0.5-15.8,2-15.3,14.1c0.6,14.8,0.3,29.7,3.3,44.2
		c6.7,32.4,33.1,40.1,59.8,46.1c39.5,8.9,77.1,0.8,114.2-13.5c40.4-15.6,77.9-37.7,119.3-50.7c26.4-8.3,53-15.1,80.7-5
		c20.9,7.6,23.3,17.8,6.7,32.6c-30,26.9-66.2,43.8-101,63c-46.7,25.9-94.9,48.3-148.3,55.6c-52.8,7.2-103.4-0.5-149.1-29.6
		c-34.4-21.9-51.3-55-54.4-95c-2.4-30.4-2-61.1,3.3-91.1c3.7-21.1,13.3-40.7,22.5-60.2c36.1-76.2,89.3-134.7,170.1-164.6
		c28.8-10.7,59-14.1,89.3-9.6c64.4,9.6,98.2,67.6,78.4,132.6c-13.5,44.2-45.6,71.9-83.8,94.1
		C1759.5,816.1,1705.4,826.8,1648.2,824.2z M1615.3,768.7c17.3-1.6,33-3.1,48.7-4.6c47.4-4.5,92.3-16.4,131-45.8
		c17.4-13.3,32.7-28.4,36.4-51.5c4.1-25.2-7.6-39.8-33.2-40.9c-21.9-1-43,2.6-62.9,11.8C1677.4,664.4,1639.9,709.7,1615.3,768.7z"/>
	<path class="st0" d="M1510.2,992c1.2,11,1.2,22-0.4,33c-3,20.6-20.2,35.5-40.6,35.4c-20.8-0.1-40-16.4-40.3-37.3
		c-0.4-26.7-2-53.3-5.7-79.6c-3.8-26.5-4.6-53.2-8-79.7c-2.4-18.4-2.5-37.7-3.9-56.5c-2-27.2-6.7-54.3-10-81.4
		c-1.3-10.5-2.1-21-2.4-31.5c-0.4-11.7,5.2-20.2,15.8-25.2c10.8-5,20.5-2.5,29.3,4.9c10.3,8.7,15.6,20.4,19,33.1
		c17.6,65.4,28.5,132.1,37.5,199.2C1504.3,934.9,1510.1,963.1,1510.2,992z"/>
	<path class="st0" d="M1390.8,487.8c0-9.5-0.2-15.2,0-21c1-20,14.4-33.7,33.3-34.1c20.6-0.5,38.7,14.1,39.4,33.6
		c1.2,30.5-9.2,57.3-30.8,79c-12.4,12.4-24.3,10.1-32.2-5.4C1391.7,522.4,1390.2,503.4,1390.8,487.8z"/>
</g>
</svg>
